<svg width="185" height="23" viewBox="0 0 185 23" fill="none" xmlns="http://www.w3.org/2000/svg">
<path d="M11.2093 0.00374353C4.86015 0.164283 -0.156792 5.44152 0.00374789 11.7907C0.164288 18.1398 5.44152 23.1568 11.7907 22.9963C18.1399 22.8357 23.1568 17.5586 22.9963 11.2093C22.8357 4.86015 17.5586 -0.1567 11.2093 0.00374353ZM11.6796 18.6011C7.75786 18.7002 4.49819 15.6014 4.39912 11.6797C4.29995 7.75795 7.39878 4.49828 11.3205 4.39921C15.2422 4.30004 18.5019 7.39887 18.601 11.3206C18.7001 15.2423 15.6013 18.5019 11.6796 18.6011Z" fill="#193FA2"/>
<path d="M19.6413 19.6172C21.7833 17.468 23.0787 14.4823 22.9959 11.2094C22.9178 8.12141 21.6272 5.35087 19.5937 3.33551L16.51 6.46781C17.7597 7.71173 18.5525 9.41862 18.6006 11.3205C18.6517 13.3397 17.8536 15.1819 16.5333 16.509L19.6413 19.6172Z" fill="#DD193A"/>
<path d="M34.0742 8.93771H31.0325V7.0473H39.2194V8.93771H36.1777V16.812H34.0742V8.93771Z" fill="#193FA2"/>
<path d="M47.549 12.1357V16.812H45.5448V12.5764C45.5448 11.6667 44.9763 11.0413 44.1519 11.0413C43.2849 11.0413 42.6169 11.6667 42.6169 12.4626V16.812H40.5417V6.87677H42.6169V10.3591C43.0718 9.71955 43.8819 9.29314 44.8201 9.29314C46.4119 9.29304 47.549 10.4727 47.549 12.1357Z" fill="#193FA2"/>
<path d="M54.4565 14.4951L55.7784 15.8454C55.1246 16.5277 53.8596 16.9824 52.7793 16.9824C50.5904 16.9824 48.8848 15.3763 48.8848 13.1164C48.8848 10.899 50.5193 9.29297 52.6656 9.29297C54.9682 9.29297 56.3185 11.0412 56.3185 13.8128H51.0168C51.2584 14.6087 51.898 15.1489 52.765 15.1489C53.3479 15.1489 54.0585 14.879 54.4565 14.4951ZM51.0453 12.3204H54.3286C54.1296 11.5955 53.5895 11.1265 52.7509 11.1265C51.9692 11.1265 51.3154 11.5813 51.0453 12.3204Z" fill="#193FA2"/>
<path d="M61.3647 11.9225C61.3647 9.17923 63.7526 6.87665 66.5527 6.87665C68.031 6.87665 69.3954 7.50207 70.3478 8.51129L68.8269 9.87583C68.2583 9.22194 67.4482 8.78129 66.5527 8.78129C64.9182 8.78129 63.5253 10.2311 63.5253 11.9225C63.5253 13.6281 64.9182 15.0779 66.5527 15.0779C67.4481 15.0779 68.2583 14.6373 68.8269 13.9835L70.3478 15.3481C69.3955 16.343 68.031 16.9826 66.5527 16.9826C63.7526 16.9826 61.3647 14.6658 61.3647 11.9225Z" fill="#193FA2"/>
<path d="M71.1724 13.1307C71.1724 11.0413 73.0059 9.29315 75.1948 9.29315C77.3695 9.29315 79.1888 11.0414 79.1888 13.1307C79.1888 15.2201 77.3695 16.9826 75.1948 16.9826C73.0059 16.9826 71.1724 15.2202 71.1724 13.1307ZM77.2131 13.1307C77.2131 11.9937 76.2893 11.0413 75.1949 11.0413C74.0862 11.0413 73.1623 11.9936 73.1623 13.1307C73.1623 14.2679 74.0862 15.2343 75.1949 15.2343C76.2893 15.2343 77.2131 14.2678 77.2131 13.1307Z" fill="#193FA2"/>
<path d="M92.0518 12.1357V16.8262H90.0619V12.4911C90.0619 11.6383 89.5218 11.0414 88.7543 11.0414C87.9299 11.0414 87.3329 11.5957 87.3329 12.3775V16.8263H85.343V12.4912C85.343 11.6384 84.8029 11.0415 84.0496 11.0415C83.211 11.0415 82.6282 11.5958 82.6282 12.3776V16.8123H80.553V9.46388H82.6282V10.4303C82.9835 9.73388 83.7084 9.29334 84.6181 9.29334C85.6273 9.29334 86.4943 9.80497 86.9491 10.6294C87.3329 9.8192 88.2425 9.29334 89.337 9.29334C90.8721 9.29305 92.0518 10.4727 92.0518 12.1357Z" fill="#193FA2"/>
<path d="M105.257 12.1357V16.8262H103.267V12.4911C103.267 11.6383 102.726 11.0414 101.959 11.0414C101.135 11.0414 100.538 11.5957 100.538 12.3775V16.8263H98.5477V12.4912C98.5477 11.6384 98.0076 11.0415 97.2543 11.0415C96.4156 11.0415 95.833 11.5958 95.833 12.3776V16.8123H93.7578V9.46388H95.833V10.4303C96.1883 9.73388 96.9131 9.29334 97.8229 9.29334C98.8321 9.29334 99.6991 9.80497 100.154 10.6294C100.538 9.8192 101.447 9.29334 102.542 9.29334C104.077 9.29305 105.257 10.4727 105.257 12.1357Z" fill="#193FA2"/>
<path d="M106.593 13.1307C106.593 11.0413 108.426 9.29315 110.615 9.29315C112.79 9.29315 114.609 11.0414 114.609 13.1307C114.609 15.2201 112.79 16.9826 110.615 16.9826C108.426 16.9826 106.593 15.2202 106.593 13.1307ZM112.634 13.1307C112.634 11.9937 111.71 11.0413 110.615 11.0413C109.507 11.0413 108.583 11.9936 108.583 13.1307C108.583 14.2679 109.507 15.2343 110.615 15.2343C111.71 15.2343 112.634 14.2678 112.634 13.1307Z" fill="#193FA2"/>
<path d="M122.995 12.1357V16.812H120.991V12.5764C120.991 11.6667 120.423 11.0413 119.598 11.0413C118.731 11.0413 118.063 11.6667 118.063 12.4626L118.049 12.42V16.812H115.974V9.46361H118.049V10.3874C118.49 9.71937 119.314 9.29297 120.266 9.29297C121.858 9.29306 122.995 10.4727 122.995 12.1357Z" fill="#193FA2"/>
<path d="M124.19 15.8738L125.085 14.4382C125.739 14.9073 126.563 15.2626 127.544 15.2626C128.098 15.2626 128.496 15.0352 128.496 14.7082C128.496 14.2534 127.956 14.1112 127.203 13.9123C125.696 13.5427 124.531 13.1305 124.517 11.6808C124.502 10.288 125.654 9.29297 127.388 9.29297C128.44 9.29297 129.477 9.66253 130.287 10.2026L129.449 11.6808C128.781 11.2686 128.013 11.027 127.388 11.027C126.876 11.027 126.521 11.2118 126.521 11.4675C126.521 11.8656 126.819 11.9792 127.814 12.2493C129.079 12.5762 130.486 13.0026 130.486 14.6087C130.486 16.0584 129.306 16.9824 127.501 16.9824C126.322 16.9825 125.071 16.5845 124.19 15.8738Z" fill="#193FA2"/>
<path d="M135.902 7.0473H140.294C142.411 7.0473 143.975 8.41175 143.975 10.3449C143.975 12.278 142.411 13.6424 140.294 13.6424H137.991V16.812H135.902V7.0473ZM140.066 11.7235C141.104 11.7235 141.814 11.1834 141.814 10.3449C141.814 9.50628 141.104 8.96618 140.066 8.96618H137.991V11.7235H140.066Z" fill="#193FA2"/>
<path d="M149.817 9.29297V11.0412C148.282 11.0412 147.301 11.9224 147.301 13.3012V16.8119H145.226V9.46351H147.301V10.8281C147.784 9.87578 148.694 9.29297 149.817 9.29297Z" fill="#193FA2"/>
<path d="M150.428 13.1307C150.428 11.0413 152.262 9.29315 154.451 9.29315C156.625 9.29315 158.445 11.0414 158.445 13.1307C158.445 15.2201 156.625 16.9826 154.451 16.9826C152.262 16.9826 150.428 15.2202 150.428 13.1307ZM156.469 13.1307C156.469 11.9937 155.545 11.0413 154.451 11.0413C153.342 11.0413 152.418 11.9936 152.418 13.1307C152.418 14.2679 153.342 15.2343 154.451 15.2343C155.545 15.2343 156.469 14.2678 156.469 13.1307Z" fill="#193FA2"/>
<path d="M158.16 19.0435L158.374 17.5084C158.573 17.5795 158.885 17.6363 159.141 17.6363C159.553 17.6363 159.838 17.2953 159.838 16.812V9.46363H161.913V17.0252C161.913 18.3754 160.96 19.342 159.624 19.342C159.113 19.342 158.516 19.214 158.16 19.0435ZM159.752 7.31726C159.752 6.73455 160.25 6.20868 160.889 6.20868C161.5 6.20868 161.998 6.73455 161.998 7.31726C161.998 7.94268 161.5 8.45431 160.889 8.45431C160.25 8.45441 159.752 7.94268 159.752 7.31726Z" fill="#193FA2"/>
<path d="M168.877 14.4951L170.199 15.8454C169.545 16.5277 168.28 16.9824 167.2 16.9824C165.011 16.9824 163.305 15.3763 163.305 13.1164C163.305 10.899 164.94 9.29297 167.086 9.29297C169.389 9.29297 170.739 11.0412 170.739 13.8128H165.438C165.679 14.6087 166.319 15.1489 167.186 15.1489C167.768 15.1489 168.479 14.879 168.877 14.4951ZM165.466 12.3204H168.749C168.55 11.5955 168.01 11.1265 167.172 11.1265C166.39 11.1265 165.736 11.5813 165.466 12.3204Z" fill="#193FA2"/>
<path d="M171.734 13.1307C171.734 11.0413 173.582 9.29315 175.757 9.29315C176.951 9.29315 177.931 9.77632 178.642 10.5439L177.263 11.7237C176.894 11.3115 176.311 11.0414 175.742 11.0414C174.662 11.0414 173.753 11.9937 173.753 13.1166C173.753 14.2679 174.662 15.2344 175.757 15.2344C176.325 15.2344 176.922 14.9501 177.306 14.5236L178.685 15.6892C177.96 16.4851 176.965 16.9826 175.742 16.9826C173.568 16.9826 171.734 15.2202 171.734 13.1307Z" fill="#193FA2"/>
<path d="M184.299 16.3429C183.873 16.7266 183.205 16.9824 182.608 16.9824C181.315 16.9824 180.405 16.0585 180.405 14.7366V11.1406H179.396V9.46341H180.405V7.44507H182.395V9.46341H183.987V11.1406H182.395V14.4097C182.395 14.8929 182.708 15.234 183.091 15.234C183.376 15.234 183.66 15.1345 183.802 14.9924L184.299 16.3429Z" fill="#193FA2"/>
</svg>
