<svg width="85" height="84" viewBox="0 0 85 84" fill="none" xmlns="http://www.w3.org/2000/svg">
<path d="M42.5183 82.6008C65.002 82.6008 83.2287 64.3741 83.2287 41.8904C83.2287 19.4066 65.002 1.17993 42.5183 1.17993C20.0345 1.17993 1.80786 19.4066 1.80786 41.8904C1.80786 64.3741 20.0345 82.6008 42.5183 82.6008Z" fill="white"/>
<path d="M82.0767 41.89C82.0745 50.0607 79.5423 58.0302 74.828 64.7036C70.1137 71.377 63.4487 76.427 55.7485 79.1596C48.0484 81.8922 39.691 82.1735 31.8246 79.9647C23.9581 77.7559 16.9687 73.1654 11.8164 66.824C6.66416 60.4826 3.60193 52.7014 3.05044 44.5494C2.49894 36.3974 4.48527 28.2746 8.73648 21.297C12.9877 14.3194 19.2952 8.82942 26.7924 5.58126C34.2897 2.33309 42.6088 1.48614 50.6068 3.15676C59.4693 5.08329 67.4129 9.96742 73.132 17.0065C78.8511 24.0456 82.0055 32.8208 82.0767 41.89C82.0767 42.1956 82.1981 42.4887 82.4142 42.7048C82.6303 42.9208 82.9233 43.0422 83.2289 43.0422C83.5345 43.0422 83.8276 42.9208 84.0436 42.7048C84.2597 42.4887 84.3811 42.1956 84.3811 41.89C84.3834 31.0716 80.1993 20.6719 72.7052 12.8695C65.2111 5.06707 54.9884 0.46729 44.1786 0.0336846C33.3689 -0.399921 22.8106 3.36629 14.7157 10.5434C6.6207 17.7205 1.61703 27.7516 0.752825 38.5355C-0.111381 49.3194 3.23094 60.0194 10.0796 68.394C16.9283 76.7687 26.752 82.1683 37.4928 83.4617C48.2337 84.7551 59.0584 81.8421 67.6995 75.3327C76.3405 68.8234 82.1274 59.2227 83.848 48.542C84.1906 46.341 84.3689 44.1175 84.3811 41.89C84.3811 41.5844 84.2597 41.2914 84.0436 41.0753C83.8276 40.8593 83.5345 40.7378 83.2289 40.7378C82.9233 40.7378 82.6303 40.8593 82.4142 41.0753C82.1981 41.2914 82.0767 41.5844 82.0767 41.89Z" fill="#1762E5"/>
<mask id="mask0_275_1718" style="mask-type:alpha" maskUnits="userSpaceOnUse" x="1" y="1" width="83" height="82">
<path d="M42.5183 82.6008C65.002 82.6008 83.2287 64.3741 83.2287 41.8904C83.2287 19.4066 65.002 1.17993 42.5183 1.17993C20.0345 1.17993 1.80786 19.4066 1.80786 41.8904C1.80786 64.3741 20.0345 82.6008 42.5183 82.6008Z" fill="white"/>
</mask>
<g mask="url(#mask0_275_1718)">
<path d="M54.3227 32.192C54.2626 34.9153 53.4 37.5603 51.8432 39.7955C50.2863 42.0307 48.1045 43.7567 45.5709 44.7573C43.0374 45.7579 40.2649 45.9885 37.6009 45.4203C34.9368 44.852 32.4998 43.5102 30.595 41.563C28.6902 39.6157 27.4025 37.1496 26.8932 34.4737C26.3839 31.7977 26.6757 29.031 27.7319 26.5202C28.7882 24.0094 30.562 21.8661 32.831 20.359C35.1 18.8518 37.7634 18.0479 40.4874 18.0478C44.1976 18.0891 47.7394 19.6024 50.334 22.2549C52.9285 24.9074 54.3633 28.4818 54.3227 32.192Z" fill="#D2E2FF"/>
<path d="M13.741 68.9665V81.1704L40.487 85.4489L67.236 81.1704V69.9083C67.236 60.0548 63.059 55.4369 57.106 53.7424C53.0749 52.5948 48.964 51.2844 45.9836 48.3348C45.8347 48.1878 45.6337 48.1055 45.4244 48.1059H35.5925C35.3603 48.1061 35.1355 48.187 34.9565 48.3348C31.3832 51.309 26.733 52.4458 22.3424 53.9697C17.2344 55.741 13.741 60.0594 13.741 68.9665Z" fill="#D2E2FF"/>
<path d="M18.0198 82.2397V66.8265C18.0198 57.9163 21.5147 53.601 26.6135 51.8313C31.0041 50.3058 35.6543 49.169 39.2276 46.1963C39.4061 46.0474 39.6312 45.9659 39.8636 45.9659H49.6955C49.9051 45.9658 50.1061 46.0486 50.2548 46.1963V46.1963C53.2351 49.1429 57.346 50.4548 61.3771 51.6024C67.3301 53.2922 71.5071 57.9163 71.5071 67.7698V82.2397H18.0198ZM58.595 30.052C58.5348 32.7753 57.6723 35.4202 56.1154 37.6554C54.5586 39.8907 52.3767 41.6167 49.8432 42.6173C47.3096 43.6179 44.5372 43.8485 41.8731 43.2803C39.2091 42.712 36.772 41.3702 34.8672 39.423C32.9625 37.4757 31.6748 35.0096 31.1655 32.3336C30.6562 29.6577 30.9479 26.891 32.0042 24.3802C33.0604 21.8693 34.8342 19.7261 37.1033 18.2189C39.3723 16.7118 42.0357 15.9078 44.7596 15.9078C46.5973 15.9274 48.413 16.3089 50.1032 17.0304C51.7934 17.7519 53.3249 18.7993 54.6102 20.1127C55.8956 21.4262 56.9096 22.98 57.5943 24.6854C58.2791 26.3908 58.6212 28.2143 58.6011 30.052H58.595Z" stroke="#1762E5" stroke-width="1.53624"/>
<path d="M82.0767 41.89C82.0745 50.0607 79.5423 58.0302 74.828 64.7036C70.1137 71.377 63.4487 76.427 55.7485 79.1596C48.0484 81.8922 39.691 82.1735 31.8246 79.9647C23.9581 77.7559 16.9687 73.1654 11.8164 66.824C6.66416 60.4826 3.60193 52.7014 3.05044 44.5494C2.49894 36.3974 4.48527 28.2746 8.73648 21.297C12.9877 14.3194 19.2952 8.82942 26.7924 5.58126C34.2897 2.33309 42.6088 1.48614 50.6068 3.15676C59.4693 5.08329 67.4129 9.96742 73.132 17.0065C78.8511 24.0456 82.0055 32.8208 82.0767 41.89C82.0767 42.1956 82.1981 42.4887 82.4142 42.7048C82.6303 42.9208 82.9233 43.0422 83.2289 43.0422C83.5345 43.0422 83.8276 42.9208 84.0436 42.7048C84.2597 42.4887 84.3811 42.1956 84.3811 41.89C84.3834 31.0716 80.1993 20.6719 72.7052 12.8695C65.2111 5.06707 54.9884 0.46729 44.1786 0.0336846C33.3689 -0.399921 22.8106 3.36629 14.7157 10.5434C6.6207 17.7205 1.61703 27.7516 0.752825 38.5355C-0.111381 49.3194 3.23094 60.0194 10.0796 68.394C16.9283 76.7687 26.752 82.1683 37.4928 83.4617C48.2337 84.7551 59.0584 81.8421 67.6995 75.3327C76.3405 68.8234 82.1274 59.2227 83.848 48.542C84.1906 46.341 84.3689 44.1175 84.3811 41.89C84.3811 41.5844 84.2597 41.2914 84.0436 41.0753C83.8276 40.8593 83.5345 40.7378 83.2289 40.7378C82.9233 40.7378 82.6303 40.8593 82.4142 41.0753C82.1981 41.2914 82.0767 41.5844 82.0767 41.89Z" fill="#1762E5"/>
</g>
</svg>
