<svg width="651" height="666" viewBox="0 0 651 666" fill="none" xmlns="http://www.w3.org/2000/svg">
<path fill-rule="evenodd" clip-rule="evenodd" d="M72.1633 36.7313C67.5102 36.7313 62.9027 37.6478 58.6039 39.4284C54.3051 41.2091 50.399 43.8191 47.1088 47.1093C43.8187 50.3996 41.2088 54.3056 39.4282 58.6045C37.6476 62.9034 36.7312 67.511 36.7313 72.164V195.187H7.66497e-09V72.1647C7.66497e-09 72.1646 7.66497e-09 72.1648 7.66497e-09 72.1647C-0.000138109 62.6881 1.8663 53.3039 5.49271 44.5486C9.11918 35.7932 14.4347 27.8378 21.1357 21.1366C27.8366 14.4355 35.7919 9.11987 44.5473 5.49323C53.3026 1.8666 62.6866 0 72.1633 0H203.224V36.7313H72.1633Z" fill="#171F93"/>
<path fill-rule="evenodd" clip-rule="evenodd" d="M578.837 36.9106H455.813V0.179321H578.837C588.313 0.179321 597.697 2.04587 606.452 5.67242C615.208 9.29896 623.163 14.6145 629.864 21.3155C636.565 28.0165 641.88 35.9717 645.507 44.7269C649.133 53.4822 651 62.866 651 72.3426V203.403H614.269V72.3426C614.269 67.6897 613.352 63.0822 611.572 58.7834C609.791 54.4845 607.181 50.5785 603.891 47.2884C600.601 43.9982 596.695 41.3883 592.396 39.6077C588.097 37.8271 583.49 36.9106 578.837 36.9106Z" fill="#171F93"/>
<path fill-rule="evenodd" clip-rule="evenodd" d="M614.269 593.529V470.506H651V593.529C651 612.668 643.397 631.023 629.864 644.556C616.33 658.09 597.975 665.692 578.836 665.692H447.776V628.961H578.836C588.234 628.961 597.246 625.228 603.891 618.583C610.536 611.939 614.269 602.926 614.269 593.529Z" fill="#171F93"/>
<path fill-rule="evenodd" clip-rule="evenodd" d="M36.7313 462.289V593.352C36.7313 593.353 36.7313 593.353 36.7313 593.354C36.7324 602.75 40.4657 611.761 47.1101 618.405C53.7548 625.05 62.7666 628.782 72.1633 628.783C72.1634 628.783 72.1632 628.783 72.1633 628.783H195.187V665.514H72.1633C53.0253 665.514 34.6709 657.911 21.138 644.379C7.605 630.847 0.00149326 612.493 0 593.355V462.289H36.7313Z" fill="#171F93"/>
<path d="M214.824 188.019H173.616V229.228H214.824V188.019Z" fill="#171F93"/>
<path d="M477.307 464.562H436.099V505.771H477.307V464.562Z" fill="#171F93"/>
<path d="M132.898 147.301V270.928H256.525V147.301H132.898ZM236.409 250.536H153.291V167.418H236.409V250.536Z" fill="#171F93"/>
<path d="M132.898 423.845V547.472H256.525V423.845H132.898ZM236.409 527.08H153.291V443.963H236.409V527.08Z" fill="#171F93"/>
<path d="M400.065 144.957V268.584H523.692V144.957H400.065ZM503.576 248.192H420.459V165.067H503.576V248.192Z" fill="#171F93"/>
<path d="M395.381 423.845V547.472H519.008V423.845H395.381ZM498.892 527.08H415.774V443.963H498.892V527.08Z" fill="#171F93"/>
<path fill-rule="evenodd" clip-rule="evenodd" d="M312.594 219.366V319.967H157.918V392.793H134.83V296.879H289.506V219.366H312.594Z" fill="#171F93"/>
<path fill-rule="evenodd" clip-rule="evenodd" d="M427.431 294.361V378.556H310.251V411.715H366.498V547.47H343.41V434.804H287.163V355.468H404.343V294.361H427.431Z" fill="#171F93"/>
<path fill-rule="evenodd" clip-rule="evenodd" d="M310.251 505.285V547.47H287.163V505.285H310.251Z" fill="#171F93"/>
<path fill-rule="evenodd" clip-rule="evenodd" d="M288.335 146.889H364.154V322.485H341.066V169.977H311.424V194.545H288.335V146.889Z" fill="#171F93"/>
<path fill-rule="evenodd" clip-rule="evenodd" d="M518.831 303.736V378.557H464.169V355.468H495.743V303.736H518.831Z" fill="#171F93"/>
<path d="M475.249 234.019L474.956 233.726C456.942 215.712 427.736 215.712 409.722 233.726L243.109 400.339C225.095 418.353 225.095 447.559 243.109 465.573L243.402 465.866C261.416 483.879 290.622 483.879 308.636 465.866L475.249 299.252C493.263 281.239 493.263 252.032 475.249 234.019Z" fill="white"/>
<path d="M177.852 337.432L177.852 337.433C159.757 355.528 159.757 384.865 177.852 402.959L241.662 466.769C259.756 484.864 289.093 484.864 307.188 466.769L307.189 466.769C325.283 448.674 325.283 419.337 307.189 401.243L243.378 337.432C225.284 319.338 195.947 319.338 177.852 337.432Z" fill="white"/>
<path d="M455.477 284.67L291.026 449.121C286.958 453.188 281.442 455.473 275.69 455.473C269.938 455.473 264.421 453.188 260.354 449.121V449.121L201.338 390.097C199.266 388.096 197.613 385.703 196.475 383.056C195.338 380.41 194.739 377.563 194.713 374.683C194.688 371.803 195.237 368.946 196.327 366.28C197.418 363.614 199.028 361.192 201.065 359.155C203.102 357.118 205.524 355.508 208.19 354.417C210.856 353.326 213.713 352.778 216.593 352.803C219.474 352.829 222.32 353.428 224.967 354.565C227.613 355.703 230.006 357.356 232.007 359.428L275.707 403.127L424.824 254.008C426.837 251.996 429.226 250.399 431.856 249.31C434.486 248.221 437.304 247.66 440.15 247.66C442.997 247.66 445.815 248.221 448.445 249.31C451.075 250.399 453.464 251.996 455.477 254.008C457.489 256.021 459.086 258.41 460.175 261.04C461.265 263.67 461.825 266.488 461.825 269.335C461.825 272.181 461.265 275 460.175 277.629C459.086 280.259 457.489 282.648 455.477 284.661V284.67Z" fill="#1EC479"/>
</svg>
