<svg width="1925" height="223" viewBox="0 0 1925 223" fill="none" xmlns="http://www.w3.org/2000/svg">
<path d="M108.195 0.0362222C46.9107 1.588 -1.51349 52.6018 0.0361807 113.979C1.58585 175.356 52.5217 223.854 113.806 222.304C175.089 220.753 223.513 169.738 221.964 108.362C220.415 46.985 169.478 -1.51556 108.195 0.0362222ZM112.732 179.813C99.1739 180.159 85.8176 176.47 74.3526 169.214C62.8875 161.958 53.8288 151.461 48.3219 139.049C42.815 126.638 41.1074 112.87 43.415 99.4866C45.7225 86.1032 51.9417 73.7057 61.2858 63.8618C70.63 54.0179 82.6795 47.1698 95.9105 44.1835C109.141 41.1973 122.96 42.207 135.618 47.085C148.276 51.963 159.205 60.4902 167.023 71.5882C174.841 82.6862 179.197 95.8565 179.539 109.434C179.768 118.447 178.221 127.418 174.987 135.833C171.754 144.248 166.896 151.943 160.693 158.479C154.489 165.014 147.061 170.262 138.832 173.923C130.603 177.583 121.734 179.585 112.732 179.813Z" fill="#171F93"/>
<path d="M189.583 189.636C199.9 179.286 208.074 166.998 213.637 153.477C219.2 139.956 222.041 125.468 221.999 110.844C221.956 96.2206 219.03 81.7495 213.389 68.2611C207.747 54.7726 199.502 42.5325 189.125 32.2429L159.36 62.522C165.743 68.8789 170.813 76.433 174.279 84.7527C177.745 93.0725 179.54 101.995 179.56 111.009C179.581 120.024 177.828 128.954 174.4 137.29C170.972 145.626 165.938 153.203 159.584 159.589L189.583 189.636Z" fill="#1DC47E"/>
<path d="M1878.05 53H1893.74V57.3264H1888.68L1888.75 75.393H1882.98L1883.11 57.3264H1878.05V53ZM1924.56 53V75.393H1919.32L1919.19 60.2507L1912.83 75.393H1908.93L1902.65 59.9345V75.393H1897.46V53H1904.89L1911.04 68.7132L1917.51 53H1924.56Z" fill="#171F93"/>
<path fill-rule="evenodd" clip-rule="evenodd" d="M346.401 72.2124C336.393 73.5608 329.833 75.9207 322.463 80.8239C314.88 85.8679 307.601 94.5086 304.199 102.503C295.576 122.766 302.088 145.78 320.335 159.529C336.523 171.727 357.656 173.051 375.646 162.994C379.291 160.956 387.342 154.637 387.109 153.996C387.034 153.788 384.305 151.218 381.046 148.285C377.786 145.353 374.567 142.438 373.891 141.808L372.663 140.663L369.944 143.117C364.906 147.664 360.051 149.964 353.466 150.923C345.001 152.157 334.851 147.951 328.829 140.715C326.432 137.835 323.754 132.963 322.622 129.423C321.557 126.093 321.325 117.886 322.193 114.204C323.698 107.814 327.855 101.19 332.843 97.2337C344.347 88.1089 358.769 88.7083 369.922 98.7744L372.62 101.21L378.601 95.8114C381.891 92.8424 385.222 89.8548 386.005 89.1724L387.427 87.9315L385.148 85.8528C378.09 79.4158 369.517 74.9593 360.689 73.1387C357.251 72.4298 348.836 71.8842 346.401 72.2124ZM1797.61 120.044V168.136H1807.64H1817.66L1817.67 159.361L1817.68 150.586L1821.89 146.12L1826.1 141.654L1834.76 154.89L1843.42 168.126L1854.93 168.131C1861.26 168.134 1866.44 168.008 1866.44 167.851C1866.44 167.625 1846.64 138.759 1840.79 130.466L1839.46 128.58L1852.38 113.896C1859.49 105.82 1865.68 98.7197 1866.14 98.1175L1866.97 97.023H1855.37H1843.77L1830.83 112.045L1817.89 127.067L1817.77 99.5088L1817.66 71.9512H1807.63H1797.61V120.044ZM1302.31 74.3444C1302.19 74.658 1302.14 95.8378 1302.21 121.411L1302.32 167.908L1312.46 168.031L1322.6 168.153L1322.72 137.944L1322.84 107.736L1337.66 127.565C1345.82 138.471 1355.97 152.065 1360.23 157.774L1367.96 168.152L1378.22 168.03L1388.48 167.908V120.955V74.0025L1378.11 73.8799L1367.74 73.7573V103.931V134.104L1353.26 114.706C1345.3 104.037 1335.2 90.4693 1330.81 84.5559L1322.84 73.8042L1312.68 73.7892C1304.96 73.7782 1302.47 73.9113 1302.31 74.3444ZM1493.1 87.2222V97.023H1488.08H1483.07V105.228V113.434H1488.08H1493.1V132.329C1493.1 144.593 1493.28 152.072 1493.61 153.64C1494.26 156.684 1496.18 160.513 1498.3 162.963C1505.34 171.129 1519.9 171.925 1529.44 164.667L1530.91 163.55L1529.96 161.17C1529.43 159.862 1528.54 157.458 1527.97 155.828C1527.4 154.198 1526.71 152.322 1526.45 151.659L1525.98 150.452L1523.82 151.545C1519.65 153.656 1515.56 152.652 1513.41 148.989C1512.52 147.47 1512.46 146.587 1512.33 130.414L1512.19 113.434H1519.97H1527.74V105.228V97.023H1519.99H1512.24V87.2222V77.4214H1502.67H1493.1V87.2222ZM423.747 96.7719C412.896 99.6446 403.458 107.316 398.623 117.194C396.287 121.965 395.416 125.311 395.089 130.773C394.06 147.893 406.316 163.819 424.088 168.456C442.124 173.161 461.054 164.364 469.005 147.582C473.419 138.267 473.609 128.518 469.569 118.577C465.806 109.317 456.306 100.779 446.005 97.3982C442.095 96.1154 441.009 95.9609 434.836 95.8118C428.7 95.6632 427.562 95.7617 423.747 96.7719ZM517.573 96.5134C512.932 98.0113 509.751 100.28 507.014 104.043L505.721 105.821V101.422V97.023H495.692H485.664V132.58V168.136H495.676H505.69L505.819 144.774C505.947 121.816 505.966 121.38 506.935 119.588C509.123 115.54 513.256 112.971 518.145 112.62C523.55 112.232 528.159 114.985 530.4 119.94L531.477 122.323L531.607 145.229L531.737 168.136H541.267H550.797L550.938 145.229C551.074 122.997 551.107 122.261 552.046 120.231C553.282 117.558 555.892 114.95 558.559 113.722C560.165 112.983 561.553 112.758 564.526 112.754C567.93 112.75 568.658 112.901 570.518 113.994C573.029 115.471 574.802 117.462 576.108 120.271C577.03 122.254 577.067 123.093 577.196 145.229L577.33 168.136H586.882H596.436V143.16C596.436 115.377 596.451 115.544 593.359 109.331C590.254 103.092 584.15 98.159 577.269 96.3279C573.975 95.4517 566.36 95.4668 562.912 96.357C556.72 97.9553 551.441 101.516 548.54 106.053L547.284 108.016L545.895 105.997C542.851 101.574 537.327 97.7852 531.867 96.3776C528.039 95.3906 520.841 95.459 517.573 96.5134ZM646.115 96.1282C641.525 97.2186 636.509 100.633 634.238 104.215L632.904 106.319V101.671V97.023H622.875H612.846V132.58V168.136H622.856H632.864L632.998 145.229L633.132 122.323L634.415 119.711C635.921 116.642 638.129 114.675 641.468 113.425C647.743 111.075 654.186 113.335 657.315 118.984L658.66 121.411L658.789 144.774L658.919 168.136H668.688H678.458L678.587 144.774C678.731 118.938 678.556 120.481 681.762 116.829C685.247 112.86 692.098 111.363 696.787 113.547C699.764 114.933 701.795 116.894 703.192 119.729C704.244 121.866 704.245 121.877 704.375 145.001L704.505 168.136H714.314H724.124L723.957 142.722C723.812 120.729 723.689 116.974 723.037 114.822C720.233 105.56 713.291 98.5957 704.608 96.3343C698.71 94.798 689.074 95.8789 683.987 98.6472C680.912 100.321 677.325 103.579 675.924 105.971C675.268 107.09 674.675 107.944 674.604 107.87C674.535 107.796 673.688 106.682 672.723 105.394C669.349 100.894 664.655 97.7711 659.134 96.3529C656.224 95.6062 648.85 95.4786 646.115 96.1282ZM767.146 96.3247C754.704 99.0343 743.548 108.377 739.174 119.75C737.197 124.892 736.695 128.149 736.937 134.276C737.303 143.54 740.488 150.716 747.323 157.673C754.033 164.503 761.808 168.317 771.369 169.47C787.013 171.355 803.099 162.742 810.203 148.677C814.869 139.438 815.468 130.079 812.006 120.51C807.831 108.971 797.639 99.8917 785.368 96.7787C781.796 95.8729 779.869 95.6623 775.413 95.6915C772.374 95.7116 768.654 95.9965 767.146 96.3247ZM861.286 96.3771C857.017 97.5031 853.169 99.6788 850.067 102.721L847.154 105.576V101.3V97.023H837.126H827.097V132.58V168.136H837.098H847.099L847.241 145.903L847.382 123.669L848.878 120.631C850.567 117.203 852.184 115.641 855.816 113.931C859.228 112.324 865.095 112.241 867.949 113.759C870.936 115.349 872.402 116.818 873.844 119.665L875.189 122.323L875.323 145.229L875.457 168.136H885.238H895.019L895.012 143.406C895.005 115.909 894.978 115.615 891.971 109.338C888.911 102.953 882.045 97.6029 875.053 96.1556C871.707 95.4631 864.299 95.5821 861.286 96.3771ZM1431.33 96.3019C1424.27 97.9211 1418.91 100.913 1413.78 106.099C1409.18 110.744 1407.36 113.691 1405.2 119.95C1403.77 124.103 1403.58 125.241 1403.39 130.565C1403.23 135.003 1403.37 137.479 1403.93 140.246C1406.83 154.563 1417.16 165.22 1431.46 168.661C1436.11 169.779 1443.81 169.97 1448.42 169.083C1456.03 167.62 1465.03 163.559 1468.67 159.947L1469.99 158.633L1463.6 152.137L1457.21 145.641L1454.42 147.504C1450.03 150.433 1446.37 151.497 1440.67 151.497C1436.36 151.497 1435.63 151.372 1433.31 150.23C1429.32 148.272 1425.61 144.149 1424.51 140.443L1424.2 139.417H1449.51C1465.81 139.417 1474.91 139.256 1475.09 138.963C1475.53 138.243 1474.48 128.361 1473.51 124.23C1472.14 118.322 1470.33 113.994 1467.46 109.701C1463.28 103.448 1458.3 99.5795 1451.38 97.2104C1448.17 96.1091 1446.94 95.9459 1440.9 95.8187C1436.25 95.7207 1433.19 95.8747 1431.33 96.3019ZM1681.59 96.3415C1670.01 98.9394 1659.9 106.688 1654.78 116.892C1647.98 130.444 1650.84 146.839 1661.95 157.915C1677.67 173.605 1702.33 173.66 1717.72 158.04C1724.99 150.668 1728.49 142.365 1728.47 132.58C1728.45 125.057 1726.63 119.015 1722.54 112.858C1717.25 104.909 1709.05 99.1227 1699.69 96.7491C1694.69 95.4795 1686.28 95.2904 1681.59 96.3415ZM1778.92 96.3753C1772.95 97.9443 1767.35 101.951 1763.91 107.111L1762.05 109.891V103.457V97.023H1752.02H1741.99V132.58V168.136H1752.02H1762.05L1762.06 150.928C1762.06 141.463 1762.27 132.283 1762.53 130.528C1763.81 121.624 1770.14 115.218 1779.64 113.205C1781.37 112.838 1783.66 112.534 1784.73 112.53L1786.67 112.522V104.089V95.6555L1784.04 95.6856C1782.6 95.702 1780.3 96.0124 1778.92 96.3753ZM1536.86 97.3558C1536.86 97.5491 1539.24 104.681 1542.14 113.206C1545.05 121.73 1550.43 137.574 1554.11 148.415L1560.79 168.125L1569.91 168.13L1579.03 168.136L1584.42 150.015C1591.42 126.553 1592.11 124.312 1592.28 124.485C1592.39 124.597 1602.66 159.047 1604.85 166.654L1605.28 168.136H1614.33H1623.39L1624.05 166.199C1628.95 151.913 1641.08 116.384 1643.7 108.647C1645.57 103.131 1647.24 98.2598 1647.41 97.8208C1647.71 97.0759 1647.07 97.023 1637.75 97.023H1627.77L1624.41 108.077C1622.56 114.158 1619.95 122.722 1618.61 127.109C1617.26 131.497 1615.83 136.277 1615.42 137.732C1615.01 139.187 1614.53 140.213 1614.35 140.011C1614.17 139.81 1612.44 134.619 1610.5 128.477C1608.56 122.334 1605.52 112.74 1603.73 107.156L1600.49 97.0034L1592.07 97.1274L1583.66 97.251L1582.86 99.7582C1582.41 101.137 1580.38 107.599 1578.33 114.117C1576.29 120.636 1573.54 129.302 1572.23 133.376L1569.84 140.783L1566.06 128.362C1563.99 121.53 1561.17 112.249 1559.8 107.736C1558.43 103.223 1557.15 99.0174 1556.96 98.3906L1556.61 97.251L1546.74 97.1279C1541.3 97.0604 1536.86 97.163 1536.86 97.3558ZM439.125 113.386C446.47 115.672 451.637 121.745 452.944 129.629C454.334 138.018 449.532 147.006 441.585 150.892C438.697 152.305 438.167 152.409 433.901 152.409C429.523 152.409 429.164 152.333 425.851 150.696C421.666 148.627 418.452 145.333 416.272 140.875C414.848 137.964 414.779 137.577 414.779 132.58C414.779 127.627 414.859 127.167 416.238 124.256C418.776 118.897 424.238 114.246 429.42 113.029C432.376 112.335 436.201 112.476 439.125 113.386ZM783.018 114.236C788.395 116.753 792.783 121.931 794.268 127.511C794.56 128.61 794.791 130.969 794.781 132.754C794.738 140.542 790.196 147.563 783.032 150.916C767.884 158.004 751.345 141.673 757.368 125.575C761.336 114.969 773.29 109.685 783.018 114.236ZM1697.46 114.236C1713.08 121.545 1713.06 143.62 1697.44 150.933C1687.69 155.491 1675.91 150.258 1671.75 139.52C1670.31 135.81 1670.29 129.294 1671.71 125.687C1675.99 114.832 1687.65 109.647 1697.46 114.236ZM1445.51 114.107C1449.93 115.418 1454.17 119.425 1455.06 123.121L1455.36 124.374H1440.04C1423.05 124.374 1423.79 124.531 1425.91 121.361C1428.42 117.603 1431.36 115.337 1435.33 114.095C1437.94 113.281 1442.75 113.287 1445.51 114.107Z" fill="#171F93"/>
<path d="M907.327 92.0085V82.8915V73.7744H946.986H986.645V82.8851V91.9957L971.944 92.1161L957.243 92.2364L957.126 130.186L957.01 168.136H946.755H936.501V130.072V92.0085H921.914H907.327Z" fill="#1DC47E"/>
<path d="M1212.75 97.0229V87.2129V77.403L1222.43 77.5261L1232.12 77.6492L1232.24 87.336L1232.37 97.0229H1239.88H1247.39V105.228V113.434H1239.87H1232.35L1232.35 130.414C1232.35 145.671 1232.43 147.555 1233.15 148.981C1234.96 152.589 1239.29 153.662 1243.47 151.544L1245.63 150.45L1246.05 151.43C1248.07 156.146 1250.4 163.429 1250.03 163.894C1249.08 165.095 1245.15 167.226 1241.84 168.333C1237.29 169.855 1231.18 169.958 1226.74 168.587C1222.76 167.358 1218.85 164.409 1216.47 160.853C1213.01 155.658 1213.02 155.805 1212.85 133.377L1212.7 113.434H1207.94H1203.17V105.228V97.0229H1207.96H1212.75Z" fill="#1DC47E"/>
<path d="M1021.32 107.11C1024.77 101.951 1030.37 97.9441 1036.33 96.3751C1037.71 96.0122 1040.02 95.7018 1041.46 95.6854L1044.08 95.6553V104.089V112.522H1041.88C1039.05 112.522 1033.41 113.962 1030.54 115.416C1027.25 117.083 1023.92 120.304 1022.26 123.425C1019.71 128.212 1019.48 130.367 1019.47 150.244L1019.47 168.136H1009.44H999.409V132.579V97.0229H1009.44H1019.47V103.457V109.891L1021.32 107.11Z" fill="#1DC47E"/>
<path d="M1138.42 110.983C1140.79 104.107 1147.32 98.6352 1155.6 96.603C1162.74 94.8485 1173.47 95.5427 1181 98.2464C1184.88 99.6427 1190.71 102.508 1192.07 103.695L1193.05 104.544L1189.23 111.154C1187.14 114.79 1185.35 117.958 1185.27 118.195C1185.18 118.432 1183.38 117.785 1181.26 116.758C1175.62 114.016 1171.7 112.916 1166.59 112.64C1163.06 112.449 1161.72 112.56 1160.09 113.182C1156.61 114.513 1155.76 116.827 1157.84 119.299C1159.18 120.891 1161.6 121.874 1169.21 123.919C1182.12 127.384 1187.92 130.399 1191.58 135.551C1194.72 139.964 1195.78 146.605 1194.27 152.393C1192.29 159.99 1186.73 165.333 1177.88 168.15C1173.84 169.434 1163.04 169.918 1157.67 169.055C1149.97 167.817 1141.3 164.424 1136.06 160.601L1133.91 159.028L1138.33 152.009L1142.76 144.989L1144.82 146.406C1147.53 148.269 1154.24 151.142 1157.75 151.943C1162.31 152.982 1166.74 153.246 1169.61 152.649C1176.76 151.164 1177.45 144.999 1170.74 142.476C1169.65 142.066 1166.04 140.998 1162.71 140.102C1155.08 138.049 1149.28 136.029 1146.66 134.509C1143.69 132.794 1140.34 129.493 1139.12 127.09C1136.87 122.662 1136.6 116.286 1138.42 110.983Z" fill="#1DC47E"/>
<path d="M1055.25 149.218C1054.71 146.642 1054.58 141.305 1054.57 121.525L1054.57 97.0229H1064.37H1074.17V119.049C1074.17 143.427 1074.23 144.012 1077.05 147.713C1078 148.963 1079.6 150.219 1081.48 151.198C1084.25 152.639 1084.64 152.717 1088.1 152.541C1091.25 152.38 1092.2 152.122 1094.71 150.75C1097.85 149.034 1100.46 146.128 1101.54 143.143C1102 141.862 1102.19 136.249 1102.32 119.246L1102.49 97.0229H1112.49H1122.49V132.579V168.136H1112.46H1102.43V164.033C1102.43 161.777 1102.37 159.93 1102.3 159.93C1102.22 159.93 1100.93 161.128 1099.43 162.591C1096.51 165.431 1092.39 167.738 1088.28 168.831C1084.93 169.723 1077.1 169.696 1073.55 168.781C1064.51 166.451 1057.24 158.671 1055.25 149.218Z" fill="#1DC47E"/>
</svg>
