<svg width="72" height="72" viewBox="0 0 72 72" fill="none" xmlns="http://www.w3.org/2000/svg">
<path d="M72 36C72 55.8823 55.8823 72 36 72C16.1177 72 0 55.8823 0 36C0 16.1177 16.1177 0 36 0C55.8823 0 72 16.1177 72 36Z" fill="white"/>
<path d="M72 36C72 55.8823 55.8823 72 36 72C16.1177 72 0 55.8823 0 36C0 16.1177 16.1177 0 36 0C55.8823 0 72 16.1177 72 36Z" fill="#E0E6FA"/>
<g clip-path="url(#clip0_410_1568)">
<path d="M34.0315 44.313C32.1906 46.1538 29.2809 46.001 27.6021 44.25C25.9373 42.5136 25.9077 39.7093 27.6678 37.9493L32.7985 32.8179L39.1629 39.1823C33.5562 44.7879 34.1129 44.2316 34.0315 44.313Z" fill="#26C679"/>
<path d="M31.2267 39.7126C31.52 39.4193 31.52 38.9446 31.2267 38.6521C30.9342 38.3588 30.4587 38.3588 30.1662 38.6521C29.873 38.9446 29.873 39.4193 30.1662 39.7126C30.4587 40.0051 30.9342 40.0051 31.2267 39.7126Z" fill="#255DCB"/>
<path d="M17.0195 54.9803C17.3124 55.2732 17.7872 55.2732 18.0802 54.9803L25.3933 47.6672C26.2704 48.5442 27.6977 48.5443 28.5749 47.6671L29.9436 46.2984C31.6491 46.6029 33.3822 46.042 34.5808 44.8434C37.5467 41.8777 45.2725 34.1523 48.2884 31.1365L48.8186 31.6667C49.1115 31.9596 49.5863 31.9596 49.8792 31.6667C50.1721 31.3738 50.1722 30.8989 49.8792 30.606C49.6391 30.3659 47.4752 28.2019 47.2273 27.954L50.8286 24.3534L51.3581 24.8829C52.2371 25.7643 53.6639 25.7625 54.5405 24.8837C55.4197 24.0045 55.4199 22.5815 54.5405 21.702L50.2969 17.4588C49.4284 16.5923 48.0088 16.5687 47.116 17.4594C46.2367 18.3387 46.2366 19.7616 47.116 20.6411L47.6462 21.1713L44.0456 24.7725C43.7998 24.5268 41.6337 22.3607 41.3937 22.1206C41.1008 21.8279 40.6259 21.8278 40.3331 22.1206C40.0402 22.4135 40.0401 22.8884 40.3331 23.1813L40.8632 23.7115C40.5952 23.9795 28.1015 36.474 27.1565 37.419C25.892 38.6835 25.408 40.4216 25.7013 42.0565L24.3328 43.425C23.4557 44.3022 23.4557 45.7293 24.3327 46.6066L17.0195 53.9196C16.7266 54.2125 16.7266 54.6874 17.0195 54.9803ZM48.1759 18.5208C48.4721 18.2253 47.3536 19.2883 47.6462 19.5803L53 24.5C53.2914 24.7914 53.7746 23.5281 53.479 23.8238C53.1914 24.1121 52.7159 24.1204 52.4194 23.823C52.0592 23.4629 48.7477 20.1513 48.1766 19.5803C47.8826 19.2864 47.8846 18.8121 48.1759 18.5208ZM28.2171 38.4796L32.8175 33.8786L38.121 39.182L37.0603 40.2428L36.53 39.7125C36.2372 39.4197 35.7623 39.4197 35.4694 39.7125C35.1765 40.0054 35.1765 40.4803 35.4694 40.7733L35.9996 41.3034L34.9391 42.3639L33.3476 40.7729C33.0548 40.4802 32.5799 40.4802 32.287 40.773C31.9941 41.066 31.9943 41.5409 32.2871 41.8338L33.8783 43.4244L33.52 43.7827C32.0448 45.258 29.625 45.2515 28.1616 43.7251C26.7732 42.2769 26.7492 39.9474 28.2171 38.4796Z" fill="white"/>
</g>
<g clip-path="url(#clip1_410_1568)">
<path d="M34.0315 44.3129C32.1906 46.1538 29.2809 46.0009 27.6021 44.2499C25.9373 42.5135 25.9077 39.7093 27.6678 37.9492L32.7985 32.8178L39.1629 39.1822C33.5562 44.7879 34.1129 44.2315 34.0315 44.3129Z" fill="#26C679"/>
<path d="M31.2267 39.7125C31.52 39.4193 31.52 38.9445 31.2267 38.652C30.9342 38.3588 30.4587 38.3588 30.1662 38.652C29.873 38.9445 29.873 39.4193 30.1662 39.7125C30.4587 40.005 30.9342 40.005 31.2267 39.7125Z" fill="#255DCB"/>
<path d="M17.0195 54.9803C17.3124 55.2731 17.7872 55.2731 18.0802 54.9803L25.3933 47.6672C26.2704 48.5442 27.6977 48.5443 28.5749 47.6671L29.9436 46.2983C31.6491 46.6028 33.3822 46.042 34.5808 44.8433C37.5467 41.8777 45.2725 34.1522 48.2884 31.1365L48.8186 31.6667C49.1115 31.9595 49.5863 31.9595 49.8792 31.6667C50.1721 31.3738 50.1722 30.8989 49.8792 30.6059C49.6391 30.3659 47.4752 28.2019 47.2273 27.954L50.8286 24.3534L51.3581 24.8829C52.2371 25.7643 53.6639 25.7625 54.5405 24.8837C55.4197 24.0044 55.4199 22.5815 54.5405 21.7019L50.2969 17.4588C49.4284 16.5923 48.0088 16.5687 47.116 17.4594C46.2367 18.3387 46.2366 19.7616 47.116 20.6411L47.6462 21.1713L44.0456 24.7725C43.7998 24.5267 41.6337 22.3607 41.3937 22.1206C41.1008 21.8279 40.6259 21.8278 40.3331 22.1206C40.0402 22.4135 40.0401 22.8884 40.3331 23.1813L40.8632 23.7115C40.5952 23.9795 28.1015 36.4739 27.1565 37.419C25.892 38.6834 25.408 40.4216 25.7013 42.0565L24.3328 43.425C23.4557 44.3022 23.4557 45.7293 24.3327 46.6066L17.0195 53.9196C16.7266 54.2125 16.7266 54.6874 17.0195 54.9803ZM45.5457 31.7576L43.9541 30.1664C43.6612 29.8736 43.1863 29.8737 42.8934 30.1666C42.6005 30.4595 42.6007 30.9344 42.8936 31.2273L44.485 32.8182L43.424 33.8792L42.8936 33.3488C42.6006 33.056 42.1258 33.056 41.8329 33.3488C41.54 33.6416 41.54 34.1165 41.8329 34.4095L42.3632 34.9399L41.3029 36.0002L39.7121 34.4093C39.4192 34.1165 38.9443 34.1165 38.6514 34.4093C38.3585 34.7022 38.3585 35.1771 38.6514 35.4701L40.2422 37.0608L39.1814 38.1215L33.878 32.8181L41.9238 24.7722L47.2275 30.0758L45.5457 31.7576ZM48.1759 18.5207C48.4721 18.2252 48.9443 18.2281 49.2369 18.5201L53.4797 22.7627C53.771 23.0541 53.7746 23.528 53.479 23.8238C53.1914 24.1121 52.7159 24.1204 52.4194 23.823C52.0592 23.4629 48.7477 20.1513 48.1766 19.5803C47.8826 19.2863 47.8846 18.8121 48.1759 18.5207ZM48.7067 22.2319L49.7678 23.2929L46.1665 26.8935L45.1061 25.8331L48.7067 22.2319ZM28.2171 38.4796L32.8175 33.8786L38.121 39.182L37.0603 40.2428L36.53 39.7125C36.2372 39.4197 35.7623 39.4197 35.4694 39.7125C35.1765 40.0054 35.1765 40.4803 35.4694 40.7732L35.9996 41.3034L34.9391 42.3638L33.3476 40.7729C33.0548 40.4801 32.5799 40.4801 32.287 40.773C31.9941 41.066 31.9943 41.5409 32.2871 41.8337L33.8783 43.4244L33.52 43.7827C32.0448 45.258 29.625 45.2515 28.1616 43.7251C26.7732 42.2769 26.7492 39.9474 28.2171 38.4796ZM25.3933 44.4856L26.2511 43.6278C26.4779 44.0468 26.762 44.4331 27.092 44.7749C27.4655 45.1618 27.8976 45.4919 28.3719 45.7486L27.5142 46.6064C27.2219 46.8987 26.7461 46.8987 26.4539 46.6064C25.1612 45.3137 25.4757 45.6281 25.3934 45.5458C25.1009 45.2536 25.1009 44.7779 25.3933 44.4856Z" fill="#255DCB"/>
</g>
<defs>
<clipPath id="clip0_410_1568">
<rect width="38.4" height="38.4" fill="white" transform="translate(16.7998 16.8)"/>
</clipPath>
<clipPath id="clip1_410_1568">
<rect width="38.4" height="38.4" fill="white" transform="translate(16.7998 16.7999)"/>
</clipPath>
</defs>
</svg>
