<svg width="72" height="72" viewBox="0 0 72 72" fill="none" xmlns="http://www.w3.org/2000/svg">
<path d="M72 36C72 55.8823 55.8823 72 36 72C16.1177 72 0 55.8823 0 36C0 16.1177 16.1177 0 36 0C55.8823 0 72 16.1177 72 36Z" fill="#E0E6FA"/>
<path fill-rule="evenodd" clip-rule="evenodd" d="M23.097 21.3462C23.097 20.521 23.7721 19.8458 24.5973 19.8458H26.0978L29.0985 19.8456V16.845H26.0978H21.5965C20.7713 16.845 20.0962 17.5202 20.0962 18.3454V47.7524C20.0962 48.5776 20.7714 49.2527 21.5965 49.2527H23.097V21.3462Z" fill="#8AA6DB"/>
<path fill-rule="evenodd" clip-rule="evenodd" d="M29.0986 16.845V19.8458H44.1021V18.3453C44.1021 17.5201 43.427 16.8449 42.6017 16.8449H29.0986V16.845Z" fill="#8AA6DB"/>
<path fill-rule="evenodd" clip-rule="evenodd" d="M24.597 19.8458H45.6021C46.4273 19.8458 47.1025 20.521 47.1025 21.3461V50.7531C47.1025 51.5783 46.4272 52.2535 45.6021 52.2535H24.597C23.7719 52.2535 23.0967 51.5783 23.0967 50.7531V21.3461C23.0968 20.5209 23.7718 19.8458 24.597 19.8458Z" fill="#F5F7FE"/>
<path d="M45.602 19.0956H44.8518V18.3453C44.8518 17.1043 43.8422 16.0947 42.6012 16.0947H29.7198C29.0121 14.1083 26.1849 14.1049 25.4756 16.0947H21.5962C20.3552 16.0947 19.3457 17.1043 19.3457 18.3453V47.7523C19.3457 48.9932 20.3552 50.0028 21.5962 50.0028H22.3465V50.7531C22.3465 51.994 23.3561 53.0036 24.597 53.0036H45.602C46.843 53.0036 47.8526 51.994 47.8526 50.7531V21.3461C47.8526 20.1052 46.843 19.0956 45.602 19.0956ZM43.3514 18.3453V19.0956H29.8483V17.5952H42.6012C43.0149 17.5952 43.3514 17.9317 43.3514 18.3453ZM21.5962 48.5025C21.1825 48.5025 20.8461 48.1659 20.8461 47.7523V18.3453C20.8461 17.9316 21.1825 17.5951 21.5962 17.5951H28.3479V19.0955H26.8476C26.808 18.1002 25.3865 18.1009 25.3472 19.0955H24.597C23.3561 19.0955 22.3465 20.1051 22.3465 21.3461V48.5025H21.5962ZM46.3522 50.7531C46.3522 51.1668 46.0157 51.5033 45.602 51.5033H24.597C24.1834 51.5033 23.8468 51.1668 23.8468 50.7531V21.3461C23.8468 20.9325 24.1834 20.596 24.597 20.596H25.4759C26.1852 22.5842 29.0111 22.583 29.7196 20.596H45.602C46.0157 20.596 46.3522 20.9325 46.3522 21.3461V50.7531Z" fill="#255DCB"/>
<path d="M30.0493 36.3256C29.78 36.1236 29.3981 36.1783 29.1961 36.4475L27.7452 38.382L26.7127 37.556C26.45 37.3457 26.0664 37.3884 25.8562 37.6511C25.646 37.9139 25.6886 38.2974 25.9514 38.5077L27.4748 39.7264C27.6942 39.9082 28.1199 39.915 28.343 39.6162L30.1711 37.1787C30.373 36.9095 30.3185 36.5275 30.0493 36.3256Z" fill="#255DCB"/>
<path d="M30.0493 40.5912C29.78 40.3893 29.3981 40.4439 29.1961 40.7131L27.7452 42.6476L26.7127 41.8216C26.45 41.6113 26.0664 41.654 25.8562 41.9167C25.646 42.1795 25.6886 42.563 25.9514 42.7733L27.4748 43.992C27.6942 44.1738 28.1199 44.1806 28.343 43.8818L30.1711 41.4443C30.373 41.1751 30.3185 40.7931 30.0493 40.5912Z" fill="#255DCB"/>
<path d="M30.0493 44.8567C29.78 44.6547 29.3981 44.7094 29.1961 44.9786L27.7452 46.9131L26.7127 46.0871C26.45 45.8768 26.0664 45.9195 25.8562 46.1823C25.646 46.445 25.6886 46.8285 25.9514 47.0388L27.4748 48.2575C27.7085 48.4537 28.1312 48.4339 28.343 48.1473L30.1711 45.7098C30.373 45.4406 30.3185 45.0587 30.0493 44.8567Z" fill="#255DCB"/>
<path d="M32.7217 39.8599H37.031C37.5069 39.8599 37.8928 39.587 37.8928 39.2505C37.8928 38.9141 37.5069 38.6412 37.031 38.6412H32.7217C32.2458 38.6412 31.8599 38.914 31.8599 39.2505C31.8599 39.5871 32.2458 39.8599 32.7217 39.8599Z" fill="#255DCB"/>
<path d="M40.4784 36.2037H32.7217C32.2458 36.2037 31.8599 36.4766 31.8599 36.8131C31.8599 37.1496 32.2458 37.4225 32.7217 37.4225H40.4784C40.9543 37.4225 41.3402 37.1497 41.3402 36.8131C41.3402 36.4766 40.9543 36.2037 40.4784 36.2037Z" fill="#255DCB"/>
<path d="M40.4784 41.688H32.7217C32.2458 41.688 31.8599 41.9609 31.8599 42.2974C31.8599 42.634 32.2458 42.9068 32.7217 42.9068H40.4784C40.9543 42.9068 41.3402 42.6339 41.3402 42.2974C41.3402 41.9609 40.9543 41.688 40.4784 41.688Z" fill="#255DCB"/>
<path d="M37.031 47.1724H32.7217C32.2458 47.1724 31.8599 47.4452 31.8599 47.7817C31.8599 48.1182 32.2458 48.3911 32.7217 48.3911H37.031C37.5069 48.3911 37.8928 48.1183 37.8928 47.7817C37.8928 47.4452 37.5069 47.1724 37.031 47.1724Z" fill="#255DCB"/>
<path d="M40.4784 44.7349H32.7217C32.2458 44.7349 31.8599 45.0077 31.8599 45.3442C31.8599 45.6808 32.2458 45.9536 32.7217 45.9536H40.4784C40.9543 45.9536 41.3402 45.6807 41.3402 45.3442C41.3402 45.0077 40.9543 44.7349 40.4784 44.7349Z" fill="#255DCB"/>
<path d="M26.8485 29.7931C27.1759 29.7931 27.4705 29.6532 27.676 29.4301C27.7734 29.9 27.9591 30.3381 28.2148 30.7262C27.8928 30.7126 27.5673 30.8366 27.3337 31.0936C26.9156 31.5535 26.9495 32.2652 27.4094 32.6832C27.8679 33.1004 28.5799 33.0683 28.9988 32.6075L28.9992 32.6071C29.2069 32.3786 29.303 32.0881 29.2907 31.8023C29.6788 32.0579 30.1169 32.2435 30.587 32.3409C29.8402 33.0214 30.3252 34.2961 31.349 34.2942C31.9704 34.2942 32.4743 33.7904 32.4743 33.1689V33.1684C32.4743 32.841 32.3344 32.5464 32.1113 32.3408C32.5813 32.2434 33.0194 32.0578 33.4075 31.8021C33.3952 32.0882 33.4914 32.379 33.6992 32.6075C34.1182 33.0683 34.8303 33.1004 35.2887 32.6832C35.7486 32.2651 35.7825 31.5535 35.3644 31.0936L35.364 31.0933C35.1304 30.8363 34.8052 30.7124 34.4835 30.7261C34.7391 30.338 34.9247 29.8999 35.0221 29.4298C35.7027 30.1766 36.9773 29.6916 36.9754 28.6678C36.9754 28.0463 36.4716 27.5425 35.8501 27.5425H35.8495C35.5222 27.5425 35.2276 27.6824 35.022 27.9055C34.9247 27.4356 34.7391 26.9974 34.4833 26.6094C34.8075 26.6227 35.1304 26.4988 35.3643 26.2419C36.3248 25.0972 34.746 23.6638 33.6992 24.7281L33.6988 24.7285C33.4911 24.957 33.395 25.2475 33.4073 25.5333C33.0192 25.2777 32.5811 25.0921 32.1111 24.9947C32.8579 24.3142 32.3728 23.0395 31.349 23.0414C30.7276 23.0414 30.2237 23.5452 30.2237 24.1667V24.1672C30.2237 24.4946 30.3636 24.7891 30.5867 24.9947C30.1168 25.0921 29.6786 25.2777 29.2906 25.5334C29.3028 25.2474 29.2066 24.9565 28.9988 24.728C28.5809 24.2683 27.8692 24.2342 27.4094 24.6523C26.9495 25.0704 26.9156 25.782 27.3337 26.2419L27.334 26.2422C27.5681 26.499 27.8906 26.6228 28.2146 26.6095C27.9589 26.9975 27.7733 27.4356 27.676 27.9057C26.9954 27.1589 25.7208 27.6439 25.7227 28.6677C25.7227 29.2892 26.2265 29.793 26.8479 29.793H26.8485V29.7931ZM31.3491 26.4173C32.59 26.4173 33.5996 27.4269 33.5996 28.6678C33.476 31.6534 29.2217 31.6525 29.0985 28.6678C29.0985 27.4269 30.1081 26.4173 31.3491 26.4173Z" fill="#26C679"/>
<path d="M40.6562 54.2878L40.6563 34.5068H53.7379V54.2878C53.7379 56.0904 51.1906 60.3133 47.0751 60.3133C42.7448 60.3133 40.6562 56.2593 40.6562 54.2878Z" fill="#D2E2FF"/>
<rect x="39.5869" y="27.6458" width="15.085" height="6.29998" fill="#F5F7FE"/>
<path d="M44.624 48.5144V41.678L53.5684 39.1162V46.0258L44.624 48.5144Z" fill="#F5F7FE"/>
<path d="M44.8188 54.2627C44.981 53.2571 46.4182 52.0686 47.1165 51.6C47.8193 52.0866 49.1709 53.2355 49.4413 54.2627C49.7048 55.264 48.9547 56.9253 47.1165 56.9253C45.2784 56.9253 44.6161 55.5196 44.8188 54.2627Z" fill="#8AA6DB"/>
<path fill-rule="evenodd" clip-rule="evenodd" d="M47.8237 60.7701C51.4629 60.4072 54.3142 57.3276 54.3142 53.5945V34.5774C54.615 34.4714 54.8906 34.2986 55.1226 34.0662C55.5315 33.658 55.7565 33.1143 55.7565 32.5366V28.9309C55.7565 28.3525 55.5315 27.8094 55.1226 27.4013C54.7144 26.9923 54.1714 26.7674 53.593 26.7674H50.3478C49.9503 26.7674 49.6266 27.0912 49.6266 27.4885C49.6266 27.8865 49.9503 28.2097 50.3478 28.2097H53.593C53.9897 28.2104 54.3134 28.5342 54.3142 28.9309V32.5366C54.3134 32.9333 53.9897 33.257 53.593 33.2578H40.612C40.2154 33.257 39.8916 32.9333 39.8909 32.5366V28.9309C39.8916 28.5342 40.2154 28.2104 40.612 28.2097H43.8573C44.2546 28.2097 44.5785 27.8859 44.5785 27.4885C44.5785 27.0912 44.2546 26.7674 43.8573 26.7674H40.612C39.5191 26.7447 38.4277 27.7253 38.4485 28.9309V32.5367C38.4485 33.1143 38.6735 33.6581 39.0824 34.0663C39.3144 34.2986 39.5901 34.4714 39.8909 34.5774V53.5945C39.8909 57.3277 42.7422 60.4072 46.3814 60.7701C46.8292 60.8148 47.3767 60.8147 47.8237 60.7701ZM48.9054 54.6762C48.9054 54.0667 47.9524 52.8946 47.1029 52.0567C46.2534 52.8956 45.2996 54.0686 45.2996 54.6762C45.2996 55.6703 46.1084 56.4791 47.1025 56.4791C48.0967 56.4791 48.9054 55.6703 48.9054 54.6762ZM45.2996 42.2063V47.7759L52.8719 45.6556V40.0861L45.2996 42.2063ZM47.8237 37.5848V40.0018L52.8719 38.5883V34.7001H51.4295V36.8636C51.4295 37.2619 51.1066 37.5848 50.7084 37.5848H47.8237ZM49.9872 36.1425V34.7001H44.2179V36.1425H49.9872ZM41.3332 53.5945C41.3332 56.7757 43.9213 59.3638 47.1025 59.3638C50.2837 59.3638 52.8719 56.7757 52.8719 53.5945V47.1535L47.8237 48.567V50.7501C48.5716 51.4428 50.3478 53.2391 50.3478 54.6763C50.3478 56.4658 48.892 57.9216 47.1025 57.9216C45.3131 57.9216 43.8573 56.4658 43.8573 54.6763C43.8573 53.2391 45.6334 51.4427 46.3814 50.7501V48.9708C46.3814 48.9708 44.6435 49.4479 44.5785 49.4479C44.4229 49.4479 44.2694 49.3975 44.1427 49.3014C43.9629 49.165 43.8573 48.9524 43.8573 48.7267V41.6594C43.8573 41.3359 44.0726 41.0521 44.384 40.9649L46.3814 40.4056V37.5848H43.4967C43.0985 37.5848 42.7755 37.2618 42.7755 36.8636V34.7001H41.3332V53.5945Z" fill="#255DCB"/>
</svg>
